<?xml version="1.0" encoding="UTF-8" standalone="no"?>
<!DOCTYPE svg PUBLIC "-//W3C//DTD SVG 1.1//EN"
 "http://www.w3.org/Graphics/SVG/1.1/DTD/svg11.dtd">
<!-- Generated by graphviz version 2.38.0 (20140413.2041)
 -->
<!-- Title: snakemake_dag Pages: 1 -->
<svg width="466pt" height="314pt"
 viewBox="0.00 0.00 466.00 314.00" xmlns="http://www.w3.org/2000/svg" xmlns:xlink="http://www.w3.org/1999/xlink">
<g id="graph0" class="graph" transform="scale(1 1) rotate(0) translate(4 310)">
<title>snakemake_dag</title>
<polygon fill="white" stroke="none" points="-4,4 -4,-310 462,-310 462,4 -4,4"/>
<!-- 0 -->
<g id="node1" class="node"><title>0</title>
<path fill="none" stroke="#56c1d8" stroke-width="2" stroke-dasharray="5,2" d="M446,-144C446,-144 416,-144 416,-144 410,-144 404,-138 404,-132 404,-132 404,-120 404,-120 404,-114 410,-108 416,-108 416,-108 446,-108 446,-108 452,-108 458,-114 458,-120 458,-120 458,-132 458,-132 458,-138 452,-144 446,-144"/>
<text text-anchor="middle" x="431" y="-123.5" font-family="sans" font-size="10.00">all</text>
</g>
<!-- 1 -->
<g id="node2" class="node"><title>1</title>
<path fill="none" stroke="#d89c56" stroke-width="2" stroke-dasharray="5,2" d="M345.5,-171C345.5,-171 315.5,-171 315.5,-171 309.5,-171 303.5,-165 303.5,-159 303.5,-159 303.5,-147 303.5,-147 303.5,-141 309.5,-135 315.5,-135 315.5,-135 345.5,-135 345.5,-135 351.5,-135 357.5,-141 357.5,-147 357.5,-147 357.5,-159 357.5,-159 357.5,-165 351.5,-171 345.5,-171"/>
<text text-anchor="middle" x="330.5" y="-150.5" font-family="sans" font-size="10.00">Index</text>
</g>
<!-- 1&#45;&gt;0 -->
<g id="edge1" class="edge"><title>1&#45;&gt;0</title>
<path fill="none" stroke="grey" stroke-width="2" d="M357.638,-145.835C368.769,-142.784 381.938,-139.174 393.97,-135.876"/>
<polygon fill="grey" stroke="grey" stroke-width="2" points="395.021,-139.217 403.74,-133.198 393.171,-132.466 395.021,-139.217"/>
</g>
<!-- 2 -->
<g id="node3" class="node"><title>2</title>
<path fill="none" stroke="#68d856" stroke-width="2" stroke-dasharray="5,2" d="M356,-117C356,-117 305,-117 305,-117 299,-117 293,-111 293,-105 293,-105 293,-93 293,-93 293,-87 299,-81 305,-81 305,-81 356,-81 356,-81 362,-81 368,-87 368,-93 368,-93 368,-105 368,-105 368,-111 362,-117 356,-117"/>
<text text-anchor="middle" x="330.5" y="-102" font-family="sans" font-size="10.00">markdown</text>
<text text-anchor="middle" x="330.5" y="-91" font-family="sans" font-size="10.00">file: readme</text>
</g>
<!-- 2&#45;&gt;0 -->
<g id="edge2" class="edge"><title>2&#45;&gt;0</title>
<path fill="none" stroke="grey" stroke-width="2" d="M368.178,-109.054C376.577,-111.356 385.499,-113.802 393.875,-116.098"/>
<polygon fill="grey" stroke="grey" stroke-width="2" points="393.18,-119.536 403.749,-118.804 395.03,-112.785 393.18,-119.536"/>
</g>
<!-- 3 -->
<g id="node4" class="node"><title>3</title>
<path fill="none" stroke="#569ad8" stroke-width="2" stroke-dasharray="5,2" d="M245,-306C245,-306 12,-306 12,-306 6,-306 0,-300 0,-294 0,-294 0,-282 0,-282 0,-276 6,-270 12,-270 12,-270 245,-270 245,-270 251,-270 257,-276 257,-282 257,-282 257,-294 257,-294 257,-300 251,-306 245,-306"/>
<text text-anchor="middle" x="128.5" y="-285.5" font-family="sans" font-size="10.00">Scripts_RNA_seq_1_Overview_RNAseq_studies_R</text>
</g>
<!-- 3&#45;&gt;1 -->
<g id="edge3" class="edge"><title>3&#45;&gt;1</title>
<path fill="none" stroke="grey" stroke-width="2" d="M241.205,-269.901C246.726,-267.307 252.032,-264.357 257,-261 286.24,-241.246 306.796,-205.37 318.375,-180.413"/>
<polygon fill="grey" stroke="grey" stroke-width="2" points="321.645,-181.674 322.511,-171.114 315.249,-178.829 321.645,-181.674"/>
</g>
<!-- 4 -->
<g id="node5" class="node"><title>4</title>
<path fill="none" stroke="#afd856" stroke-width="2" stroke-dasharray="5,2" d="M228.5,-252C228.5,-252 28.5,-252 28.5,-252 22.5,-252 16.5,-246 16.5,-240 16.5,-240 16.5,-228 16.5,-228 16.5,-222 22.5,-216 28.5,-216 28.5,-216 228.5,-216 228.5,-216 234.5,-216 240.5,-222 240.5,-228 240.5,-228 240.5,-240 240.5,-240 240.5,-246 234.5,-252 228.5,-252"/>
<text text-anchor="middle" x="128.5" y="-231.5" font-family="sans" font-size="10.00">Scripts_RNA_seq_2_Variant_information_R</text>
</g>
<!-- 4&#45;&gt;1 -->
<g id="edge4" class="edge"><title>4&#45;&gt;1</title>
<path fill="none" stroke="grey" stroke-width="2" d="M233.365,-215.991C241.502,-213.381 249.474,-210.401 257,-207 273.19,-199.684 289.239,-188.279 302.105,-177.832"/>
<polygon fill="grey" stroke="grey" stroke-width="2" points="304.653,-180.263 310.069,-171.157 300.157,-174.898 304.653,-180.263"/>
</g>
<!-- 5 -->
<g id="node6" class="node"><title>5</title>
<path fill="none" stroke="#88d856" stroke-width="2" stroke-dasharray="5,2" d="M230,-198C230,-198 27,-198 27,-198 21,-198 15,-192 15,-186 15,-186 15,-174 15,-174 15,-168 21,-162 27,-162 27,-162 230,-162 230,-162 236,-162 242,-168 242,-174 242,-174 242,-186 242,-186 242,-192 236,-198 230,-198"/>
<text text-anchor="middle" x="128.5" y="-177.5" font-family="sans" font-size="10.00">Scripts_RNA_seq_3_Aberrant_expression_R</text>
</g>
<!-- 5&#45;&gt;1 -->
<g id="edge5" class="edge"><title>5&#45;&gt;1</title>
<path fill="none" stroke="grey" stroke-width="2" d="M242.068,-164.803C260.509,-162.314 278.37,-159.903 293.09,-157.915"/>
<polygon fill="grey" stroke="grey" stroke-width="2" points="293.774,-161.355 303.216,-156.548 292.838,-154.418 293.774,-161.355"/>
</g>
<!-- 6 -->
<g id="node7" class="node"><title>6</title>
<path fill="none" stroke="#56d88a" stroke-width="2" stroke-dasharray="5,2" d="M190.5,-144C190.5,-144 66.5,-144 66.5,-144 60.5,-144 54.5,-138 54.5,-132 54.5,-132 54.5,-120 54.5,-120 54.5,-114 60.5,-108 66.5,-108 66.5,-108 190.5,-108 190.5,-108 196.5,-108 202.5,-114 202.5,-120 202.5,-120 202.5,-132 202.5,-132 202.5,-138 196.5,-144 190.5,-144"/>
<text text-anchor="middle" x="128.5" y="-123.5" font-family="sans" font-size="10.00">Scripts_RNA_seq_4_MAE_R</text>
</g>
<!-- 6&#45;&gt;1 -->
<g id="edge6" class="edge"><title>6&#45;&gt;1</title>
<path fill="none" stroke="grey" stroke-width="2" d="M202.554,-135.862C233.407,-140.028 267.96,-144.692 293.217,-148.102"/>
<polygon fill="grey" stroke="grey" stroke-width="2" points="293.057,-151.612 303.435,-149.481 293.993,-144.675 293.057,-151.612"/>
</g>
<!-- 7 -->
<g id="node8" class="node"><title>7</title>
<path fill="none" stroke="#d87556" stroke-width="2" stroke-dasharray="5,2" d="M222.5,-90C222.5,-90 34.5,-90 34.5,-90 28.5,-90 22.5,-84 22.5,-78 22.5,-78 22.5,-66 22.5,-66 22.5,-60 28.5,-54 34.5,-54 34.5,-54 222.5,-54 222.5,-54 228.5,-54 234.5,-60 234.5,-66 234.5,-66 234.5,-78 234.5,-78 234.5,-84 228.5,-90 222.5,-90"/>
<text text-anchor="middle" x="128.5" y="-69.5" font-family="sans" font-size="10.00">Scripts_RNA_seq_5_Aberrant_splicing_R</text>
</g>
<!-- 7&#45;&gt;1 -->
<g id="edge7" class="edge"><title>7&#45;&gt;1</title>
<path fill="none" stroke="grey" stroke-width="2" d="M233.712,-90.0893C241.73,-92.6796 249.583,-95.6334 257,-99 275.212,-107.266 276.96,-114.053 293,-126 294.185,-126.883 295.393,-127.781 296.613,-128.688"/>
<polygon fill="grey" stroke="grey" stroke-width="2" points="294.629,-131.574 304.745,-134.722 298.8,-125.953 294.629,-131.574"/>
</g>
<!-- 8 -->
<g id="node9" class="node"><title>8</title>
<path fill="none" stroke="#d85656" stroke-width="2" stroke-dasharray="5,2" d="M206,-36C206,-36 51,-36 51,-36 45,-36 39,-30 39,-24 39,-24 39,-12 39,-12 39,-6 45,-0 51,-0 51,-0 206,-0 206,-0 212,-0 218,-6 218,-12 218,-12 218,-24 218,-24 218,-30 212,-36 206,-36"/>
<text text-anchor="middle" x="128.5" y="-15.5" font-family="sans" font-size="10.00">Scripts_RNA_seq_6_Guidelines_R</text>
</g>
<!-- 8&#45;&gt;1 -->
<g id="edge8" class="edge"><title>8&#45;&gt;1</title>
<path fill="none" stroke="grey" stroke-width="2" d="M218.087,-25.4039C232.15,-29.6437 245.746,-35.8875 257,-45 287.617,-69.7908 268.349,-95.2699 293,-126 293.925,-127.153 294.91,-128.282 295.941,-129.384"/>
<polygon fill="grey" stroke="grey" stroke-width="2" points="293.583,-131.97 303.279,-136.242 298.363,-126.856 293.583,-131.97"/>
</g>
</g>
</svg>
